<svg xmlns="http://www.w3.org/2000/svg" width="15.274" height="27.153" viewBox="0 0 15.274 27.153">
  <g id="Group_148" data-name="Group 148" transform="translate(1.697) rotate(45)">
    <path id="Rectangle_181" data-name="Rectangle 181" d="M0,0H2.4a0,0,0,0,1,0,0V18a1.2,1.2,0,0,1-1.2,1.2h0A1.2,1.2,0,0,1,0,18V0A0,0,0,0,1,0,0Z" transform="translate(19.2) rotate(90)" fill="#202020"/>
    <path id="Rectangle_182" data-name="Rectangle 182" d="M0,0H2.4a0,0,0,0,1,0,0V18a1.2,1.2,0,0,1-1.2,1.2h0A1.2,1.2,0,0,1,0,18V0A0,0,0,0,1,0,0Z" transform="translate(16.8)" fill="#202020"/>
  </g>
</svg>
