<svg id="圖層_1" data-name="圖層 1" xmlns="http://www.w3.org/2000/svg" xmlns:xlink="http://www.w3.org/1999/xlink" viewBox="0 0 308 158"><defs><style>.cls-1{fill:#fff;opacity:0;}.cls-2{fill:url(#linear-gradient);}.cls-3{fill:url(#linear-gradient-2);}.cls-4{fill:#231815;}</style><linearGradient id="linear-gradient" x1="238.88" y1="59.51" x2="65.82" y2="80.67" gradientUnits="userSpaceOnUse"><stop offset="0" stop-color="#ad1401"/><stop offset="0.09" stop-color="#b61603"/><stop offset="0.23" stop-color="#ce1d0a"/><stop offset="0.34" stop-color="#e62310"/><stop offset="1" stop-color="#e62310"/></linearGradient><linearGradient id="linear-gradient-2" x1="107.09" y1="-31.47" x2="235.43" y2="60.77" gradientUnits="userSpaceOnUse"><stop offset="0" stop-color="#ad1401"/><stop offset="0.02" stop-color="#b21502"/><stop offset="0.18" stop-color="#ce1d0a"/><stop offset="0.31" stop-color="#e0210e"/><stop offset="0.41" stop-color="#e62310"/><stop offset="0.69" stop-color="#e62310"/><stop offset="1" stop-color="#e73817"/></linearGradient></defs><title>未命名-1</title><rect class="cls-1" width="308" height="158"/><polygon class="cls-2" points="62.9 62.58 62.9 77.19 245.1 77.19 224.84 62.58 62.9 62.58"/><polygon class="cls-3" points="204.03 28.73 204.03 47.57 245.1 77.19 245.1 58.33 204.03 28.73"/><path class="cls-4" d="M110.09,105.83a1.88,1.88,0,0,0,2-1.8V96.2a1.9,1.9,0,0,0-2-1.82H69.24a6.08,6.08,0,0,0-6.32,5.81v55.4a1.91,1.91,0,0,0,2,1.8H75.81a1.89,1.89,0,0,0,2-1.8V131.24h32.32a1.89,1.89,0,0,0,2-1.8v-7.83a1.91,1.91,0,0,0-2-1.82H86.21a3.42,3.42,0,0,0-3.08,1.64l-5.36,7.33V105.83Z"/><path class="cls-4" d="M173,105.83a1.89,1.89,0,0,0,2-1.8V96.18a1.91,1.91,0,0,0-2-1.8H132c-3.65,0-6.21,3.14-6.21,5.46v53a4.75,4.75,0,0,0,4.93,4.53H173a1.9,1.9,0,0,0,2-1.8v-7.84a1.92,1.92,0,0,0-2-1.82h-32.4V131.24H173a1.89,1.89,0,0,0,2-1.8v-7.82a1.91,1.91,0,0,0-2-1.83h-23.9c-2.37,0-3.11,1.68-3.9,2.68l-4.6,6.34v-23Z"/><path class="cls-4" d="M243.14,94.38H189.8a1.9,1.9,0,0,0-2,1.82v7.85a1.87,1.87,0,0,0,2,1.78l30.83,0c-1.42,0-3.52.59-4.27,1.68,0,0-4.57,5.17-6.58,7.85a5.12,5.12,0,0,0-.73,3v37.24a1.9,1.9,0,0,0,2,1.8h10.89a1.89,1.89,0,0,0,2-1.8V105.83h19.25a1.88,1.88,0,0,0,2-1.8V96.2A1.9,1.9,0,0,0,243.14,94.38Z"/></svg>