<svg xmlns="http://www.w3.org/2000/svg" width="40" height="40" viewBox="0 0 40 40">
  <g id="Group_1267" data-name="Group 1267" transform="translate(9513 14333)">
    <rect id="Rectangle_1033" data-name="Rectangle 1033" width="40" height="40" transform="translate(-9513 -14333)" opacity="0"/>
    <path id="Union_10" data-name="Union 10" d="M34,28H20l-2-2-2,2V26H34V6H32V4h4V28ZM2,28V26H16v2ZM0,28V4H4V6H2V28Zm16-6H4V0H16l2,2,2-2H32V16l-6,6v0H20l-2,2Zm3-2h7V16h4V2H19Zm-2,0V2H6V20Zm4-6V13h7v1ZM8,14V13h7v1Zm13-3V10h7v1ZM8,11V10h7v1ZM21,8V4h7V8ZM8,8V4h7V8Z" transform="translate(-9511 -14326.998)" fill="#333"/>
  </g>
</svg>
