<svg xmlns="http://www.w3.org/2000/svg" width="15.274" height="27.153" viewBox="0 0 15.274 27.153">
  <g id="Group_148" data-name="Group 148" transform="translate(27.153 13.576) rotate(135)">
    <path id="Rectangle_181" data-name="Rectangle 181" d="M1.2,0h0A1.2,1.2,0,0,1,2.4,1.2V19a0,0,0,0,1,0,0H0a0,0,0,0,1,0,0V1.2A1.2,1.2,0,0,1,1.2,0Z" transform="translate(0 19.2) rotate(-90)" fill="#202020"/>
    <path id="Rectangle_182" data-name="Rectangle 182" d="M1.2,0h0A1.2,1.2,0,0,1,2.4,1.2v18a0,0,0,0,1,0,0H0a0,0,0,0,1,0,0V1.2A1.2,1.2,0,0,1,1.2,0Z" transform="translate(16.8 0)" fill="#202020"/>
  </g>
</svg>
